<svg xmlns="http://www.w3.org/2000/svg" width="51.344" height="51.344" viewBox="0 0 51.344 51.344">
  <g id="account_circle" transform="translate(0 0)">
    <path id="Caminho_58" data-name="Caminho 58" d="M27.672,2A25.672,25.672,0,1,0,53.344,27.672,25.681,25.681,0,0,0,27.672,2ZM15.735,44.359a20.428,20.428,0,0,1,23.875,0,20.429,20.429,0,0,1-23.875,0Zm27.7-3.543h0a25.547,25.547,0,0,0-31.525,0h0a20.538,20.538,0,1,1,31.525,0Z" transform="translate(-2 -2)" fill="#105ef3"/>
    <path id="Caminho_59" data-name="Caminho 59" d="M17.485,6a8.985,8.985,0,1,0,8.985,8.985A9,9,0,0,0,17.485,6Zm0,12.836a3.851,3.851,0,1,1,3.851-3.851A3.846,3.846,0,0,1,17.485,18.836Z" transform="translate(8.187 4.269)" fill="#105ef3"/>
  </g>
</svg>
