<svg id="interests" xmlns="http://www.w3.org/2000/svg" width="51.344" height="48.777" viewBox="0 0 51.344 48.777">
  <path id="Caminho_70" data-name="Caminho 70" d="M14.887,30.239A10.269,10.269,0,1,0,25.156,40.508,10.266,10.266,0,0,0,14.887,30.239Zm0,15.4a5.134,5.134,0,1,1,5.134-5.134A5.149,5.149,0,0,1,14.887,45.642Zm15.352-15.4V50.777H50.777V30.239Zm15.4,15.4H35.374V35.374H45.642ZM14.836,2,2,25.1H27.672Zm0,10.577,4.108,7.394H10.728ZM46.284,3.284a7.014,7.014,0,0,0-5.776,3,7.058,7.058,0,0,0-12.836,4.056c0,5.134,6.213,8.78,12.836,14.761,6.623-5.982,12.836-9.627,12.836-14.761A7.072,7.072,0,0,0,46.284,3.284ZM40.508,18.3c-3.722-3.132-7.7-6.161-7.7-7.958a1.923,1.923,0,0,1,1.925-1.925,2.671,2.671,0,0,1,1.874.95l3.9,3.671,3.9-3.671a2.671,2.671,0,0,1,1.874-.95,1.923,1.923,0,0,1,1.925,1.925C48.21,12.14,44.23,15.17,40.508,18.3Z" transform="translate(-2 -2)" fill="#105ef3"/>
</svg>
