<svg xmlns="http://www.w3.org/2000/svg" width="214.82" height="214.82" viewBox="0 0 214.82 214.82">
  <g id="like-stamp" transform="translate(0.707 143.403) rotate(-45)">
    <g id="Grupo_24" data-name="Grupo 24" transform="translate(22.523 18.018)">
      <g id="Grupo_23" data-name="Grupo 23">
        <path id="Caminho_109" data-name="Caminho 109" d="M85.505,103.9H55.235a4.789,4.789,0,0,1-4.775-4.685v-54.5a4.806,4.806,0,0,1,4.775-4.775,4.73,4.73,0,0,1,4.685,4.775v50.18H85.505a4.5,4.5,0,1,1,0,9.009Z" transform="translate(-50.46 -39.94)" fill="#6fedd6" stroke="#56504c" stroke-width="1"/>
        <path id="Caminho_110" data-name="Caminho 110" d="M163.919,44.715v54.5a4.789,4.789,0,0,1-4.775,4.685,4.71,4.71,0,0,1-4.685-4.685v-54.5a4.73,4.73,0,0,1,4.685-4.775A4.806,4.806,0,0,1,163.919,44.715Z" transform="translate(-107.613 -39.94)" fill="#6fedd6" stroke="#56504c" stroke-width="1"/>
        <path id="Caminho_111" data-name="Caminho 111" d="M242.242,44.715a4.575,4.575,0,0,1-1.171,3.153l-21.8,24.054,21.8,24.054a4.6,4.6,0,0,1,1.171,3.153,4.85,4.85,0,0,1-4.685,4.775,4.7,4.7,0,0,1-3.514-1.532L209.719,75.435V99.219a4.789,4.789,0,0,1-4.775,4.685,4.71,4.71,0,0,1-4.685-4.685v-54.5a4.73,4.73,0,0,1,4.685-4.775,4.806,4.806,0,0,1,4.775,4.775V68.408l24.324-26.937a4.85,4.85,0,0,1,3.514-1.532A4.668,4.668,0,0,1,242.242,44.715Z" transform="translate(-132.782 -39.94)" fill="#6fedd6" stroke="#56504c" stroke-width="1"/>
        <path id="Caminho_112" data-name="Caminho 112" d="M345.485,103.9h-30.45a4.789,4.789,0,0,1-4.775-4.685v-54.5a4.806,4.806,0,0,1,4.775-4.775h30.45a4.518,4.518,0,0,1,4.5,4.5,4.461,4.461,0,0,1-4.5,4.5H319.719V66.967h23.153a4.46,4.46,0,0,1,0,8.919H319.719V94.895h25.766a4.5,4.5,0,0,1,0,9.009Z" transform="translate(-193.233 -39.94)" fill="#6fedd6" stroke="#56504c" stroke-width="1"/>
      </g>
    </g>
    <g id="Grupo_25" data-name="Grupo 25" transform="translate(0 0)">
      <path id="Caminho_113" data-name="Caminho 113" d="M193.253,4.444a4.512,4.512,0,0,1,4.5,4.5V90.931a4.512,4.512,0,0,1-4.5,4.5H9.469a4.512,4.512,0,0,1-4.5-4.5V8.949a4.512,4.512,0,0,1,4.5-4.5H193.253m0-4.5H9.469A9.007,9.007,0,0,0,.46,8.949V90.931A9.007,9.007,0,0,0,9.469,99.94H193.253a9.007,9.007,0,0,0,9.009-9.009V8.949A9.009,9.009,0,0,0,193.253-.06Z" transform="translate(-0.46 0.06)" fill="#6fedd6" stroke="#56504c" stroke-width="1"/>
    </g>
  </g>
</svg>
