<svg id="logo" xmlns="http://www.w3.org/2000/svg" xmlns:xlink="http://www.w3.org/1999/xlink" width="92.514" height="82.821" viewBox="0 0 92.514 82.821">
  <defs>
    <linearGradient id="linear-gradient" y1="0.5" x2="1" y2="0.5" gradientUnits="objectBoundingBox">
      <stop offset="0" stop-color="#4255f2"/>
      <stop offset="1" stop-color="#a83cf2"/>
    </linearGradient>
    <linearGradient id="linear-gradient-2" y1="0.5" x2="1" y2="0.5" gradientUnits="objectBoundingBox">
      <stop offset="0" stop-color="#24a6f5"/>
      <stop offset="1" stop-color="#105ef3"/>
    </linearGradient>
  </defs>
  <circle id="Elipse_1" data-name="Elipse 1" cx="8.206" cy="8.206" r="8.206" transform="translate(9.462 0)" fill="url(#linear-gradient)"/>
  <circle id="Elipse_2" data-name="Elipse 2" cx="8.206" cy="8.206" r="8.206" transform="translate(66.641 0)" fill="url(#linear-gradient-2)"/>
  <path id="Caminho_7" data-name="Caminho 7" d="M239.006,551.907a19.029,19.029,0,1,1-8.793-16.049,95.048,95.048,0,0,0,7.951,10.437A19.006,19.006,0,0,1,239.006,551.907Z" transform="translate(-200.93 -492.433)" fill="url(#linear-gradient)"/>
  <path id="Caminho_8" data-name="Caminho 8" d="M638.036,551.907A19.038,19.038,0,1,1,600.8,546.3a95.008,95.008,0,0,0,7.953-10.439,19.036,19.036,0,0,1,29.282,16.049Z" transform="translate(-545.522 -492.433)" fill="url(#linear-gradient-2)"/>
  <path id="Caminho_9" data-name="Caminho 9" d="M307.1,413.423a107.977,107.977,0,0,1-13.381-10.271c-2.659-2.4-4.873-4.643-6.678-6.6a76.679,76.679,0,0,1-9.877-12.917,60.715,60.715,0,0,1-5.33-10.82,28.111,28.111,0,0,1-1.037-3.88c-.011-.053-.022-.105-.03-.158a29.674,29.674,0,0,1-.441-3.833c0-.134-.011-.27-.015-.411-.263-10,9.259-17.187,16.349-18.731a12.6,12.6,0,0,1,2.66-.31s14.741-1.064,17.779,12.461a11.9,11.9,0,0,0-8.813-4.255,12.473,12.473,0,0,0-6.454,1.939,10.246,10.246,0,0,0-2.512,2.317c-.059.078-.119.155-.175.232a11.633,11.633,0,0,0-2.1,6.757,15.13,15.13,0,0,0,.873,4.82c.059.164.123.331.19.5a24.672,24.672,0,0,0,2.02,3.761,95.015,95.015,0,0,0,7.951,10.437c2.591,3.026,5.617,6.329,9.023,9.812C299.533,401.2,316.424,404.692,307.1,413.423Z" transform="translate(-260.845 -330.605)" fill="url(#linear-gradient)"/>
  <path id="Caminho_10" data-name="Caminho 10" d="M564.049,364.564c0,.136-.008.273-.015.411a29.441,29.441,0,0,1-.49,4.091s0,.005,0,.008a27.882,27.882,0,0,1-1.016,3.773,60.826,60.826,0,0,1-5.33,10.82,76.674,76.674,0,0,1-9.877,12.917c-1.805,1.954-4.019,4.2-6.678,6.6a107.759,107.759,0,0,1-13.381,10.272c9.319-8.731-7.57-12.224,0-19.147,3.405-3.482,6.43-6.783,9.02-9.809a95.051,95.051,0,0,0,7.954-10.439,24.669,24.669,0,0,0,2.02-3.761c.064-.157.123-.312.177-.468a15.118,15.118,0,0,0,.885-4.85,11.546,11.546,0,0,0-2.28-6.991,11.413,11.413,0,0,0-17.779,0c3.04-13.524,17.779-12.461,17.779-12.461.049,0,.1,0,.146,0C552.263,345.628,564.346,353.316,564.049,364.564Z" transform="translate(-481.001 -330.631)" fill="url(#linear-gradient-2)"/>
</svg>
