<svg xmlns="http://www.w3.org/2000/svg" width="17.997" height="18.387" viewBox="0 0 17.997 18.387">
  <g id="logo-google" transform="translate(26.754 -39.239)">
    <path id="Caminho_50" data-name="Caminho 50" d="M-5.951,50.978A10.652,10.652,0,0,0-6.1,49.239h-8.657v3.455H-9.8a4.268,4.268,0,0,1-1.839,2.743v2.3h2.957A8.989,8.989,0,0,0-5.951,50.978Z" transform="translate(-2.806 -2.339)" fill="#4285f4"/>
    <path id="Caminho_51" data-name="Caminho 51" d="M-17.259,60.968a8.758,8.758,0,0,0,6.076-2.229l-2.957-2.3a5.546,5.546,0,0,1-3.118.889,5.491,5.491,0,0,1-5.156-3.8h-3.049V55.9A9.18,9.18,0,0,0-17.259,60.968Z" transform="translate(-0.302 -3.342)" fill="#34a853"/>
    <path id="Caminho_52" data-name="Caminho 52" d="M-22.716,51.735a5.335,5.335,0,0,1-.291-1.754,5.543,5.543,0,0,1,.291-1.754V45.859h-3.049a9.087,9.087,0,0,0-.988,4.122,9.087,9.087,0,0,0,.988,4.122Z" transform="translate(0 -1.548)" fill="#fbbc05"/>
    <path id="Caminho_53" data-name="Caminho 53" d="M-17.259,42.878a4.988,4.988,0,0,1,3.524,1.379l2.62-2.62a8.79,8.79,0,0,0-6.144-2.4,9.18,9.18,0,0,0-8.205,5.072l3.049,2.367A5.491,5.491,0,0,1-17.259,42.878Z" transform="translate(-0.302 0)" fill="#ea4335"/>
  </g>
</svg>
