<svg xmlns="http://www.w3.org/2000/svg" width="244.76" height="244.76" viewBox="0 0 244.76 244.76">
  <g id="nope-stamp" transform="translate(71.418 0.707) rotate(45)">
    <g id="Grupo_27" data-name="Grupo 27" transform="translate(22.527 16.667)">
      <g id="Grupo_26" data-name="Grupo 26">
        <path id="Caminho_114" data-name="Caminho 114" d="M96.787,99.329a4.7,4.7,0,0,1-4.685,4.685,4.382,4.382,0,0,1-3.874-2.072C81.111,91.221,59.4,59.329,59.489,59.329v40a4.73,4.73,0,0,1-9.459,0v-54.5A4.8,4.8,0,0,1,54.8,40.05a4.68,4.68,0,0,1,3.874,2.072c7.027,10.45,28.649,42.613,28.649,42.613V44.825A4.865,4.865,0,0,1,92.1,40.05a4.671,4.671,0,0,1,4.685,4.775v54.5Z" transform="translate(-50.03 -38.699)" fill="#ff8b8b" stroke="#56504c" stroke-width="1"/>
        <path id="Caminho_115" data-name="Caminho 115" d="M223.127,63V77.771c0,16.036-10.991,25.946-23.694,25.946-12.883,0-23.6-9.82-23.6-25.946V63c0-16.126,10.721-25.946,23.6-25.946C213.127,37.05,223.127,47.771,223.127,63ZM185.289,78.4c0,10.36,6.4,16.306,14.144,16.306,7.838,0,14.234-5.946,14.234-16.306V62.365c0-10.36-6.4-16.306-14.234-16.306-7.748,0-14.144,5.946-14.144,16.306V78.4Z" transform="translate(-119.163 -37.05)" fill="#ff8b8b" stroke="#56504c" stroke-width="1"/>
        <path id="Caminho_116" data-name="Caminho 116" d="M340.578,60.32c0,11.261-8.649,20.27-22.252,20.27h-6.036V99.329a4.71,4.71,0,0,1-4.685,4.685,4.789,4.789,0,0,1-4.775-4.685v-54.5A4.806,4.806,0,0,1,307.6,40.05h10.721C331.744,40.05,340.578,48.789,340.578,60.32Zm-9.459,0c0-6.216-4.5-11.261-12.342-11.261h-6.486V71.581h6.486C326.614,71.581,331.118,66.536,331.118,60.32Z" transform="translate(-188.956 -38.699)" fill="#ff8b8b" stroke="#56504c" stroke-width="1"/>
        <path id="Caminho_117" data-name="Caminho 117" d="M439.045,104.014h-30.45a4.789,4.789,0,0,1-4.775-4.685v-54.5a4.806,4.806,0,0,1,4.775-4.775h30.45a4.518,4.518,0,0,1,4.5,4.5,4.461,4.461,0,0,1-4.5,4.5H413.279V67.077h23.153a4.46,4.46,0,0,1,0,8.919H413.279V95h25.766a4.5,4.5,0,1,1,0,9.009Z" transform="translate(-244.456 -38.699)" fill="#ff8b8b" stroke="#56504c" stroke-width="1"/>
      </g>
    </g>
    <g id="Grupo_28" data-name="Grupo 28" transform="translate(0 0)">
      <path id="Caminho_118" data-name="Caminho 118" d="M235.155,5a4.06,4.06,0,0,1,4.054,4.054V91.041a4.06,4.06,0,0,1-4.054,4.054H9.029a4.06,4.06,0,0,1-4.054-4.054V9.059A4.06,4.06,0,0,1,9.029,5H235.155m0-4.955H9.029A9.007,9.007,0,0,0,.02,9.059V91.041a9.007,9.007,0,0,0,9.009,9.009H235.155a9.006,9.006,0,0,0,9.009-9.009V9.059A9.006,9.006,0,0,0,235.155.05Z" transform="translate(-0.02 -0.05)" fill="#ff8b8b" stroke="#56504c" stroke-width="1"/>
    </g>
  </g>
</svg>
