<svg xmlns="http://www.w3.org/2000/svg" width="51.344" height="28.006" viewBox="0 0 51.344 28.006">
  <g id="password" transform="translate(0 0)">
    <path id="Caminho_65" data-name="Caminho 65" d="M3.334,30.338H50.01v4.668H3.334Zm2.684-9.452L8,17.432l1.984,3.454,3.034-1.75-1.984-3.454H15v-3.5H11.035L13.019,8.75,9.985,7,8,10.431,6.018,7,2.984,8.75l1.984,3.431H1v3.5H4.967L2.984,19.136Zm15.637-1.75,3.034,1.75,1.984-3.454,1.984,3.454,3.034-1.75-1.984-3.454h3.967v-3.5H29.706L31.69,8.75,28.656,7l-1.984,3.431L24.688,7,21.654,8.75l1.984,3.431H19.671v3.5h3.967Zm30.69-6.955H48.376L50.36,8.75,47.326,7l-1.984,3.431L43.359,7,40.325,8.75l1.984,3.431H38.341v3.5h3.967l-1.984,3.454,3.034,1.75,1.984-3.454,1.984,3.454,3.034-1.75-1.984-3.454h3.967Z" transform="translate(-1 -7)" fill="#105ef3"/>
  </g>
</svg>
