<svg id="sentiment_dissatisfied" xmlns="http://www.w3.org/2000/svg" width="51.344" height="51.344" viewBox="0 0 51.344 51.344">
  <circle id="Elipse_1" data-name="Elipse 1" cx="4" cy="4" r="4" transform="translate(30.816 14.532)" fill="#105ef3"/>
  <ellipse id="Elipse_2" data-name="Elipse 2" cx="3.5" cy="4" rx="3.5" ry="4" transform="translate(12.816 14.532)" fill="#105ef3"/>
  <path id="Caminho_69" data-name="Caminho 69" d="M27.672,32.806a14.107,14.107,0,0,0-13.144,8.985h4.287a10.206,10.206,0,0,1,17.714,0h4.287a14.107,14.107,0,0,0-13.144-8.985ZM27.646,2a25.672,25.672,0,1,0,25.7,25.672A25.659,25.659,0,0,0,27.646,2Zm.026,46.21A20.538,20.538,0,1,1,48.21,27.672,20.532,20.532,0,0,1,27.672,48.21Z" transform="translate(-2 -2)" fill="#105ef3"/>
</svg>
